<?xml version="1.0" standalone="no"?>
<!DOCTYPE svg PUBLIC "-//W3C//DTD SVG 1.1//EN" "http://www.w3.org/Graphics/SVG/1.1/DTD/svg11.dtd" >
<svg xmlns="http://www.w3.org/2000/svg">
<metadata>Generated by IcoMoon</metadata>
<defs>
<font id="icomoon" horiz-adv-x="512">
<font-face units-per-em="512" ascent="480" descent="-32" />
<missing-glyph horiz-adv-x="512" />
<glyph unicode="&#x20;" d="" horiz-adv-x="256" />
<glyph unicode="&#xe600;" d="M371.584 323.064c-27.128 26.768-64.368 43.32-105.488 43.32-27.112 0-52.472-7.288-74.432-19.848-0.84 1.88-38.56 51.904-75.824 6.504-23.872-29.080 1.424-57.928 15.648-70.456-9.928-20.056-15.648-42.568-15.648-66.464 0-31.448 9.696-60.616 26.208-84.744-2.712 8.432 59.408 184.16 229.536 191.688zM148.232 309.144c-10.84 9.984-18.536 22.2-8.528 32.664 8.632 9.024 23.168 1.384 34.328-7.104-9.6-7.464-18.264-16.024-25.8-25.56zM166.816 103.536c26.488-23.376 61.168-37.672 99.272-37.672 31.872 0 61.376 9.992 85.688 26.92l-46.368 46.104-0.8 1.728c-4.416-1.448-9.040-2.432-13.944-2.432-24.816 0-44.936 20.12-44.936 44.936s20.12 44.936 44.936 44.936c24.816 0 44.936-20.12 44.936-44.936 0-6.792-1.616-13.168-4.32-18.936l1.512-0.72 47.2-45.168c22.608 26.296 36.352 60.424 36.352 97.824 0 32.424-10.376 62.368-27.84 86.92-2.888-0.272-150.376-15.064-221.688-199.504z" />
<glyph unicode="&#xe601;" d="M428.717 161.358v103.315c-0.37 79.674-54.993 155.809-136.727 175.155 0 0-2.693 40.172-42.847 40.172-40.752 0-42.794-39.010-42.794-39.010-81.716-19.293-135.689-96.644-136.129-176.317v-100.006c0-48.868-32.144-57.282-70.221-97.119h498.322c-38.077 39.837-69.605 44.942-69.605 93.81zM249.143-32c43.78 0 80.361 34.961 90.254 79.656h-180.489c9.911-44.713 46.491-79.656 90.236-79.656z" horiz-adv-x="499" />
<glyph unicode="&#xe602;" d="M141.456 142.878c0-8.89-7.207-16.098-16.097-16.098s-16.097 7.207-16.097 16.098c0 8.89 7.207 16.098 16.097 16.098s16.097-7.207 16.097-16.098zM185.006 142.878c0-8.89-7.207-16.098-16.097-16.098s-16.097 7.207-16.097 16.098c0 8.89 7.207 16.098 16.097 16.098s16.097-7.207 16.097-16.098zM228.547 142.878c0-8.885-7.202-16.087-16.087-16.087s-16.087 7.202-16.087 16.087c0 8.885 7.202 16.087 16.087 16.087s16.087-7.202 16.087-16.087zM272.098 142.878c0-8.89-7.207-16.098-16.098-16.098s-16.097 7.207-16.097 16.098c0 8.89 7.207 16.098 16.097 16.098s16.098-7.207 16.098-16.098zM272.098 101.888c0-8.89-7.207-16.098-16.098-16.098s-16.097 7.207-16.097 16.098c0 8.89 7.207 16.098 16.097 16.098s16.098-7.207 16.098-16.098zM272.098 60.897c0-8.89-7.207-16.098-16.098-16.098s-16.097 7.207-16.097 16.098c0 8.89 7.207 16.098 16.097 16.098s16.098-7.207 16.098-16.098zM315.648 142.878c0-8.89-7.207-16.098-16.098-16.098s-16.098 7.207-16.098 16.098c0 8.89 7.207 16.098 16.098 16.098s16.098-7.207 16.098-16.098zM359.188 142.878c0-8.89-7.207-16.098-16.098-16.098s-16.098 7.207-16.098 16.098c0 8.89 7.207 16.098 16.098 16.098s16.098-7.207 16.098-16.098zM402.739 142.878c0-8.89-7.207-16.098-16.098-16.098s-16.098 7.207-16.098 16.098c0 8.89 7.207 16.098 16.098 16.098s16.098-7.207 16.098-16.098zM163.236 183.582c0-8.89-7.207-16.098-16.097-16.098s-16.097 7.207-16.097 16.098c0 8.89 7.207 16.098 16.097 16.098s16.097-7.207 16.097-16.098zM206.776 183.582c0-8.89-7.207-16.098-16.097-16.098s-16.097 7.207-16.097 16.098c0 8.89 7.207 16.098 16.097 16.098s16.097-7.207 16.097-16.098zM250.327 183.582c0-8.89-7.207-16.098-16.097-16.098s-16.097 7.207-16.097 16.098c0 8.89 7.207 16.098 16.097 16.098s16.097-7.207 16.097-16.098zM293.868 183.582c0-8.89-7.207-16.098-16.098-16.098s-16.098 7.207-16.098 16.098c0 8.89 7.207 16.098 16.098 16.098s16.098-7.207 16.098-16.098zM337.418 183.582c0-8.89-7.207-16.098-16.098-16.098s-16.098 7.207-16.098 16.098c0 8.89 7.207 16.098 16.098 16.098s16.098-7.207 16.098-16.098zM380.969 183.582c0-8.89-7.207-16.098-16.098-16.098s-16.098 7.207-16.098 16.098c0 8.89 7.207 16.098 16.098 16.098s16.098-7.207 16.098-16.098zM185.006 224.286c0-8.89-7.207-16.098-16.097-16.098s-16.097 7.207-16.097 16.097c0 8.891 7.207 16.097 16.097 16.097s16.097-7.207 16.097-16.097zM228.547 224.286c0-8.885-7.202-16.087-16.087-16.087s-16.087 7.202-16.087 16.087c0 8.885 7.202 16.087 16.087 16.087s16.087-7.202 16.087-16.087zM272.098 224.286c0-8.89-7.207-16.098-16.098-16.098s-16.097 7.207-16.097 16.097c0 8.891 7.207 16.097 16.097 16.097s16.098-7.207 16.098-16.097zM315.648 224.286c0-8.89-7.207-16.098-16.098-16.098s-16.098 7.207-16.098 16.097c0 8.891 7.207 16.097 16.098 16.097s16.098-7.207 16.098-16.097zM359.188 224.286c0-8.89-7.207-16.098-16.098-16.098s-16.098 7.207-16.098 16.097c0 8.891 7.207 16.097 16.098 16.097s16.098-7.207 16.098-16.097zM206.776 264.99c0-8.89-7.207-16.097-16.097-16.097s-16.097 7.207-16.097 16.097c0 8.89 7.207 16.097 16.097 16.097s16.097-7.207 16.097-16.097zM250.327 264.99c0-8.89-7.207-16.097-16.097-16.097s-16.097 7.207-16.097 16.097c0 8.89 7.207 16.097 16.097 16.097s16.097-7.207 16.097-16.097zM293.868 264.99c0-8.89-7.207-16.097-16.098-16.097s-16.098 7.207-16.098 16.097c0 8.89 7.207 16.097 16.098 16.097s16.098-7.207 16.098-16.097zM337.418 264.99c0-8.89-7.207-16.097-16.098-16.097s-16.098 7.207-16.098 16.097c0 8.89 7.207 16.097 16.098 16.097s16.098-7.207 16.098-16.097zM228.547 305.705c0-8.885-7.202-16.087-16.087-16.087s-16.087 7.202-16.087 16.087c0 8.885 7.202 16.087 16.087 16.087s16.087-7.202 16.087-16.087zM272.098 305.705c0-8.891-7.207-16.098-16.098-16.098s-16.097 7.207-16.097 16.098c0 8.89 7.207 16.097 16.097 16.097s16.098-7.207 16.098-16.097zM315.648 305.705c0-8.891-7.207-16.098-16.098-16.098s-16.098 7.207-16.098 16.098c0 8.89 7.207 16.097 16.098 16.097s16.098-7.207 16.098-16.097zM250.327 346.409c0-8.89-7.207-16.097-16.097-16.097s-16.097 7.207-16.097 16.097c0 8.89 7.207 16.097 16.097 16.097s16.097-7.207 16.097-16.097zM293.868 346.409c0-8.89-7.207-16.097-16.098-16.097s-16.098 7.207-16.098 16.097c0 8.89 7.207 16.097 16.098 16.097s16.098-7.207 16.098-16.097zM272.098 387.113c0-8.891-7.207-16.098-16.098-16.098s-16.097 7.207-16.097 16.098c0 8.891 7.207 16.098 16.097 16.098s16.098-7.207 16.098-16.098z" />
<glyph unicode="&#xe603;" d="M101.489 95.519l25.426 50.841 25.416-50.841zM153.129 95.519l25.426 50.841 25.416-50.841zM204.759 95.519l25.426 50.841 25.416-50.841zM256.399 95.519l25.416 50.841 25.426-50.841zM308.039 95.519l25.416 50.841 25.416-50.841zM359.67 95.519l25.416 50.841 25.426-50.841zM127.314 146.084l25.416 50.832 25.416-50.832zM178.954 146.084l25.416 50.832 25.416-50.832zM230.584 146.084l25.416 50.832 25.416-50.832zM282.224 146.084l25.416 50.832 25.416-50.832zM333.854 146.084l25.416 50.832 25.416-50.832zM153.129 196.639l25.426 50.841 25.416-50.841zM204.759 196.639l25.426 50.841 25.416-50.841zM256.399 196.639l25.416 50.841 25.426-50.841zM308.029 196.639l25.416 50.841 25.426-50.841zM178.954 247.019l25.416 50.841 25.416-50.841zM230.584 247.019l25.416 50.841 25.416-50.841zM282.224 247.019l25.416 50.841 25.416-50.841zM204.759 297.933l25.426 50.841 25.416-50.841zM256.399 297.933l25.416 50.841 25.426-50.841zM230.584 352.358l25.416 50.842 25.416-50.841zM230.584 44.8l25.416 50.832 25.416-50.832z" />
<glyph unicode="&#xe604;" d="M360.981 300.672c-6.528-2.603-12.182-7.744-17.152-14.038-9.792 12.693-21.718 23.616-35.243 32.278 95.531 25.173 160.746 96.192 160.746 161.088h-42.666c0-36.714-34.368-85.824-86.592-116.971 27.435 32.768 43.925 76.075 43.925 116.971h-42.666c0-50.517-15.317-124.65-76.522-142.89-9.707 2.176-19.776 3.413-30.144 3.413s-20.438-1.238-30.144-3.413c-61.206 18.24-76.522 92.352-76.522 142.89h-42.666c0-40.896 16.512-84.202 43.904-116.971-52.181 31.147-86.57 80.256-86.57 116.971h-42.666c0-64.896 65.195-135.914 160.746-161.11-13.568-8.64-25.472-19.563-35.243-32.256-4.95 6.272-10.645 11.435-17.152 14.038-38.294 15.317-87.019 5.654-87.019 5.654s19.328-61.654 50.24-74.006c8.448-3.37 18.005-4.97 27.477-5.632-1.386-7.808-2.24-15.808-2.24-24.022 0-78.742 86.272-234.666 137.856-234.666s137.856 155.925 137.856 234.667c0 8.214-0.853 16.214-2.219 24.022 9.45 0.64 19.029 2.24 27.456 5.632 30.912 12.352 50.24 74.005 50.24 74.005s-48.726 9.664-87.019-5.654zM160 138.666c-17.664 0-32 14.336-32 32s14.336 32 32 32 32-14.336 32-32-14.336-32-32-32zM234.667 5.334c-17.664 0-32 18.752-32 32s14.336 16 32 16 32-2.752 32-16-14.336-32-32-32zM309.334 138.666c-17.664 0-32 14.336-32 32s14.336 32 32 32 32-14.336 32-32-14.336-32-32-32z" horiz-adv-x="470" />
<glyph unicode="&#xe605;" d="M393.016 60.805l-73.909 145.372 42.17-16.147-68.166 134.080 22.428-11.36-59.539 127.997-59.537-127.997 22.43 11.361-68.169-134.081 42.171 16.148-73.91-145.373 121.14 42.423v-95.975h31.752v95.976z" />
<glyph unicode="&#xe606;" d="M481.613 263.626l-9.377 28.867-58.492-19.010 20.232 39.708-27.047 13.772-34.002-66.739-27.956-9.088 12.881 74.847-22.007 16.007-64.67-33.946v26.11l52.973 52.967-21.467 21.456-31.506-31.503v61.494h-30.353v-61.496l-31.506 31.503-21.46-21.456 52.966-52.967v-25.998l-64.451 33.936-22.029-15.986 12.813-75.001-28.078 9.121-34.007 66.739-27.047-13.773 20.232-39.708-58.492 19.010-9.377-28.867 58.492-19.008-39.705-20.227 13.78-27.037 66.741 34.001 25.272-8.214-50.003-48.67 8.399-25.899 74.103-10.816-18.904-26.006-73.991-11.721 4.751-29.985 44.013 6.978-36.15-49.752 24.551-17.837 36.15 49.752 6.972-44.017 29.977 4.746-11.721 73.996 17.828 24.536 31.376-63.685 27.214-0.010 31.504 63.717 17.848-24.559-11.721-73.996 29.977-4.746 6.973 44.017 36.15-49.752 24.551 17.837-36.145 49.752 44.008-6.978 4.751 29.985-73.991 11.721-18.848 25.94 74.023 10.715 8.423 25.876-50.055 48.848 25.323 8.227 66.741-34.001 13.78 27.037-39.699 20.227 58.489 19.009zM271.176 273.762l51.548 27.057-10.38-60.276-41.168-13.384v46.603zM240.823 273.854v-46.695l-41.065 13.351-10.321 60.39 51.386-27.046zM207.616 165.496l-59.449 8.674 39.423 38.376 43.856-14.242-23.83-32.808zM255.954 95.763l-24.848 50.432 24.894 34.259 24.886-34.248-24.932-50.443zM363.838 174.035l-59.409-8.596-23.878 32.864 43.831 14.232 39.456-38.5z" />
<glyph unicode="&#xe607;" d="M256.705 139.536l-198.695 131.207v-246.894h395.98v245.963zM130.955 275.243l-0.072 84.251h249.486l-0.022-84.251h22.507l34.284 22.639-36.769 25.678v55.934h-80.092l-63.946 44.657-64.403-44.657h-81.045v-56.198l-36.021-24.977 34.946-23.076zM319.045 307.963l-14.438-8.336 2.070 15.345-12.74 1.72-3.4-25.188-11.641-6.72c-4.277 4.739-10 8.146-16.468 9.523v13.425l20.112 15.54-7.859 10.174-12.253-9.467v16.672h-12.857v-16.672l-12.253 9.467-7.859-10.174 20.113-15.54v-13.425c-6.467-1.376-12.19-4.784-16.467-9.523l-11.641 6.72-3.4 25.188-12.742-1.72 2.072-15.344-14.438 8.335-6.428-11.134 14.438-8.335-14.325-5.878 4.881-11.894 23.514 9.649 11.629-6.715c-0.975-2.998-1.508-6.195-1.508-9.515 0-3.319 0.534-6.515 1.508-9.514l-11.629-6.713-23.514 9.649-4.88-11.894 14.324-5.878-14.439-8.336 6.428-11.134 14.439 8.336-2.072-15.345 12.742-1.72 3.4 25.188 11.64 6.719c4.277-4.74 10.001-8.146 16.468-9.523v-13.425l-20.113-15.539 7.861-10.173 12.252 9.465v-16.672h12.857v16.672l12.253-9.465 7.859 10.173-20.112 15.539v13.425c6.468 1.377 12.19 4.785 16.468 9.524l11.641-6.721 3.4-25.188 12.74 1.72-2.070 15.345 14.438-8.336 6.428 11.134-14.439 8.336 14.326 5.878-4.881 11.894-23.514-9.649-11.631 6.714c0.977 2.999 1.51 6.194 1.51 9.513s-0.533 6.515-1.51 9.515l11.631 6.715 23.514-9.649 4.881 11.894-14.324 5.878 14.438 8.335-6.43 11.135zM256 246.155c-9.918 0-17.987 8.069-17.987 17.986 0 9.919 8.069 17.988 17.987 17.988s17.986-8.069 17.986-17.988c0-9.917-8.068-17.986-17.986-17.986z" />
<glyph unicode="&#xe608;" d="M466.115 187.955c-0.452 20.024-3.885 41.173-6.941 50.050-3.108 9.025-9.313 16.344-17.176 20.946 2.91 1.55 4.349 5.021 3.242 8.237l-9.695 28.155c-0.589 1.712-1.834 3.12-3.463 3.913-1.627 0.795-3.504 0.908-5.216 0.319l-12.323-4.244-1.994 5.79c-0.726 2.103-1.882 3.966-3.341 5.52 15.494 10.269 30.080 22.163 43.529 35.612 2.666 2.666 2.666 6.988 0 9.655-2.668 2.666-6.989 2.664-9.654 0-50.014-50.012-116.454-77.556-187.083-77.556s-137.069 27.544-187.082 77.558c-2.666 2.663-6.987 2.665-9.656 0-2.665-2.667-2.665-6.988 0-9.654 13.45-13.45 28.035-25.343 43.53-35.612-1.459-1.554-2.617-3.417-3.341-5.521l-1.993-5.789-12.324 4.245c-1.71 0.588-3.588 0.476-5.215-0.319s-2.873-2.202-3.463-3.913l-9.695-28.155c-1.108-3.217 0.332-6.686 3.242-8.237-7.864-4.602-14.069-11.921-17.177-20.946-3.056-8.878-6.489-30.027-6.941-50.050-0.621-27.505 4.269-42.663 14.948-46.339 1.52-0.524 3.136-0.79 4.803-0.79 0.023 0 0.047 0 0.071 0 3.825 0 15.242 0.185 37.16 30.438 10.194 14.073 20.352 31.86 23.626 41.372 3.071 8.909 2.819 18.416-0.641 27.078 0.39-0.069 0.784-0.107 1.178-0.107 1.028 0 2.052 0.232 2.993 0.691 1.627 0.793 2.873 2.202 3.463 3.913l9.695 28.155c1.227 3.565-0.667 7.449-4.232 8.676l-12.324 4.245 1.994 5.789c0.040 0.116 0.063 0.233 0.101 0.349 34.571-17.841 72.673-28.232 112.309-30.324-0.281-1.164-0.448-2.373-0.448-3.623v-6.124h-13.038c-1.811 0-3.547-0.72-4.827-2s-2-3.017-2-4.827l0.001-29.778c0-3.405 2.495-6.218 5.754-6.735-6.095-7.064-9.428-15.972-9.427-25.396 0-9.389 3.641-30.502 9.734-49.582 8.369-26.207 17.928-38.947 29.221-38.948h0.002c11.294 0 20.854 12.74 29.221 38.948 6.093 19.082 9.733 40.195 9.733 49.582 0 9.425-3.333 18.332-9.426 25.397 3.259 0.515 5.754 3.329 5.754 6.735v29.778c0 3.77-3.057 6.827-6.826 6.827l-13.036 0.001v6.123c0 1.25-0.166 2.459-0.448 3.623 39.638 2.093 77.74 12.483 112.312 30.324 0.036-0.117 0.060-0.234 0.101-0.351l1.993-5.788-12.323-4.245c-3.565-1.227-5.459-5.113-4.231-8.677l9.695-28.155c0.589-1.712 1.834-3.12 3.462-3.913 0.942-0.459 1.966-0.691 2.993-0.691 0.394 0 0.788 0.038 1.178 0.107-3.461-8.661-3.712-18.168-0.644-27.077 3.276-9.512 13.433-27.298 23.627-41.37 22.053-30.441 33.476-30.441 37.228-30.441 1.666 0 3.283 0.266 4.803 0.789 10.68 3.675 15.57 18.832 14.949 46.337zM113.582 217.083c-2.499-7.26-11.327-23.385-21.775-37.808-14.179-19.575-23.12-24.796-26.168-24.796h-0.001c-0.104 0-0.251 0.007-0.361 0.046-1.361 0.469-6.322 7.462-5.744 33.122 0.417 18.445 3.543 38.195 6.202 45.915 3.516 10.212 13.129 17.072 23.922 17.072 2.794 0 5.567-0.468 8.24-1.388 6.391-2.201 11.541-6.758 14.504-12.834 2.962-6.074 3.382-12.938 1.181-19.329zM128.044 270.358l-5.249-15.245-40.903 14.086 5.249 15.245 12.324-4.244c3.561-1.226 7.448 0.667 8.677 4.231l4.216 12.243c0.285 0.827 1.046 1.196 1.672 1.196 0.193 0 0.385-0.034 0.579-0.099 0.921-0.317 1.412-1.327 1.096-2.249l-4.217-12.242c-1.227-3.565 0.666-7.45 4.231-8.678l12.326-4.245zM272.215 137.192c-7.806-24.45-14.776-29.447-16.214-29.447h-0.001c-1.439 0-8.408 4.997-16.215 29.447-5.613 17.577-9.087 37.267-9.087 45.43-0.001 6.759 2.631 13.113 7.41 17.892 4.78 4.779 11.135 7.411 17.893 7.411s13.113-2.632 17.892-7.411 7.411-11.134 7.411-17.894c-0.002-8.161-3.474-27.85-9.088-45.428zM277.63 237.704v-16.125h-43.26l-0.001 16.125h13.035c3.77 0 6.827 3.056 6.827 6.827v12.95c0 0.976 0.794 1.769 1.77 1.769s1.768-0.793 1.768-1.768v-12.948c0-3.77 3.056-6.827 6.826-6.827l13.036-0.001zM383.955 270.358l12.325 4.246c3.565 1.227 5.459 5.112 4.231 8.678l-4.216 12.24c-0.318 0.923 0.173 1.933 1.098 2.251 0.19 0.065 0.383 0.098 0.576 0.098 0.627 0 1.387-0.37 1.673-1.195l4.216-12.244c1.227-3.565 5.111-5.459 8.676-4.231l12.324 4.244 5.248-15.245-40.901-14.087-5.25 15.245zM446.721 154.524c-0.109-0.038-0.255-0.045-0.358-0.045-3.048 0-11.991 5.223-26.171 24.798-10.448 14.421-19.276 30.548-21.776 37.807-2.2 6.39-1.781 13.254 1.182 19.328s8.113 10.632 14.504 12.834c2.673 0.92 5.446 1.387 8.24 1.387 10.792 0 20.406-6.861 23.921-17.072 2.658-7.72 5.784-27.468 6.201-45.915 0.579-25.659-4.382-32.653-5.744-33.122z" />
<glyph unicode="&#xe609;" d="M451.949 172.286l-58.997-15.809-22.876 13.207 39.68 10.633c5.335 1.43 8.501 6.913 7.071 12.247s-6.915 8.503-12.247 7.071l-58.999-15.809-24.615 14.211c3.222 8.034 5.014 16.79 5.014 25.962s-1.791 17.927-5.014 25.96l24.617 14.213 58.999-15.808c0.867-0.232 1.737-0.344 2.594-0.344 4.415 0.001 8.456 2.947 9.653 7.415 1.43 5.335-1.736 10.818-7.071 12.247l-39.68 10.632 22.875 13.207 58.997-15.808c0.867-0.232 1.737-0.344 2.594-0.344 4.415 0.001 8.456 2.947 9.653 7.415 1.43 5.334-1.736 10.817-7.071 12.247l-39.679 10.632 30.437 17.572c4.783 2.762 6.422 8.877 3.66 13.66-2.761 4.781-8.877 6.422-13.66 3.66l-30.437-17.573 10.631 39.679c1.43 5.335-1.736 10.818-7.071 12.247s-10.817-1.737-12.247-7.071l-15.807-58.996-22.876-13.208 10.632 39.681c1.43 5.334-1.736 10.817-7.071 12.247-5.338 1.43-10.817-1.736-12.247-7.071l-15.809-58.999-24.642-14.227c-10.87 13.772-26.785 23.377-44.94 25.987v28.414l43.189 43.19c3.905 3.905 3.905 10.237 0 14.143-3.906 3.904-10.236 3.904-14.143 0l-29.046-29.046v26.412l43.189 43.19c3.905 3.905 3.905 10.237 0 14.143-3.906 3.904-10.236 3.904-14.143 0l-29.046-29.048v35.146c0 5.522-4.478 10-10 10s-10-4.478-10-10v-35.146l-29.047 29.046c-3.906 3.904-10.236 3.904-14.143 0-3.905-3.905-3.905-10.237 0-14.143l43.19-43.188v-26.412l-29.047 29.046c-3.906 3.904-10.236 3.904-14.143 0-3.905-3.905-3.905-10.237 0-14.143l43.19-43.188v-28.414c-18.154-2.61-34.069-12.215-44.938-25.986l-24.644 14.228-15.81 58.998c-1.43 5.336-6.916 8.502-12.247 7.071-5.335-1.43-8.501-6.913-7.071-12.247l10.633-39.68-22.875 13.206-15.809 58.997c-1.43 5.336-6.915 8.503-12.247 7.071-5.335-1.43-8.501-6.913-7.071-12.247l10.633-39.68-30.438 17.573c-4.784 2.762-10.899 1.122-13.66-3.66-2.762-4.783-1.123-10.898 3.66-13.66l30.437-17.573-39.677-10.632c-5.335-1.43-8.501-6.913-7.071-12.247 1.197-4.469 5.237-7.415 9.653-7.415 0.856 0 1.728 0.111 2.594 0.344l58.996 15.809 22.876-13.207-39.679-10.633c-5.335-1.43-8.501-6.913-7.071-12.247 1.197-4.469 5.237-7.415 9.653-7.415 0.856 0 1.728 0.111 2.594 0.344l58.998 15.809 24.616-14.212c-3.223-8.033-5.014-16.789-5.014-25.961 0-9.171 1.791-17.927 5.014-25.96l-24.617-14.213-58.999 15.808c-5.336 1.429-10.817-1.737-12.247-7.071s1.736-10.817 7.071-12.247l39.68-10.632-22.876-13.207-58.997 15.806c-5.337 1.431-10.817-1.737-12.247-7.071s1.736-10.817 7.071-12.247l39.679-10.632-30.437-17.572c-4.783-2.762-6.422-8.877-3.66-13.66 1.853-3.208 5.213-5.002 8.67-5.002 1.696 0 3.416 0.433 4.99 1.342l30.438 17.573-10.632-39.679c-1.43-5.334 1.736-10.817 7.071-12.247 0.867-0.232 1.737-0.344 2.594-0.344 4.415 0 8.456 2.947 9.653 7.415l15.808 58.996 22.876 13.208-10.632-39.681c-1.43-5.335 1.736-10.817 7.071-12.247 0.867-0.232 1.737-0.344 2.594-0.344 4.415 0 8.456 2.947 9.653 7.415l15.808 58.998 24.643 14.228c10.869-13.772 26.784-23.377 44.939-25.987v-28.413l-43.189-43.191c-3.905-3.905-3.905-10.237 0-14.143 1.953-1.952 4.512-2.929 7.071-2.929s5.118 0.977 7.071 2.929l29.047 29.049v-26.414l-43.188-43.189c-3.905-3.905-3.905-10.237 0-14.143 1.953-1.952 4.512-2.929 7.071-2.929s5.118 0.977 7.071 2.929l29.046 29.047v-35.145c0-5.522 4.478-10 10-10s10 4.478 10 10v35.146l29.047-29.046c3.906-3.904 10.236-3.904 14.143 0 3.905 3.905 3.905 10.237 0 14.143l-43.19 43.187v26.414l29.048-29.047c3.906-3.904 10.236-3.904 14.143 0 3.905 3.905 3.905 10.237 0 14.143l-43.191 43.189v28.413c18.155 2.61 34.070 12.215 44.939 25.986l24.643-14.228 15.811-58.999c1.197-4.468 5.237-7.414 9.653-7.414 0.856 0.001 1.728 0.111 2.595 0.344 5.334 1.43 8.5 6.913 7.070 12.248l-10.633 39.679 22.875-13.207 15.809-58.996c1.197-4.469 5.237-7.415 9.653-7.415 0.856 0.001 1.728 0.111 2.594 0.344 5.335 1.43 8.501 6.913 7.071 12.247l-10.633 39.679 30.437-17.572c1.575-0.909 3.294-1.342 4.99-1.342 3.456 0 6.818 1.794 8.67 5.002 2.762 4.783 1.123 10.898-3.66 13.66l-30.437 17.572 39.678 10.633c5.335 1.43 8.501 6.913 7.071 12.247s-6.913 8.502-12.247 7.071zM256 174.021c-27.559 0-49.979 22.42-49.979 49.979s22.42 49.979 49.979 49.979 49.979-22.42 49.979-49.979-22.42-49.979-49.979-49.979z" />
<glyph unicode="&#xe60a;" d="M458.729 294.111c-3.241 1.744-7.178 1.566-10.249-0.461l-16.439-10.855v125.863c0 5.523-4.478 10-10 10h-332.081c-5.523 0-10-4.477-10-10v-124.933l-16.44 10.856c-3.071 2.027-7.008 2.206-10.248 0.461-3.241-1.744-5.262-5.126-5.262-8.806v-246.895c0-5.523 4.477-10 10-10h395.98c5.522 0 10 4.477 10 10v245.964c0 3.68-2.021 7.063-5.261 8.806zM99.96 398.658h312.080v-129.071l-155.335-102.574-156.745 103.505v128.14zM443.99 49.342h-375.98v218.307l183.185-120.965c3.342-2.207 7.677-2.207 11.021 0l181.774 120.034v-217.376zM263.5 213.147v11.701l5.924-5.924c1.465-1.464 3.385-2.197 5.304-2.197s3.839 0.732 5.304 2.197c2.929 2.929 2.929 7.678 0 10.606l-16.532 16.532v17.351c5.918 1.448 11.182 4.571 15.268 8.835l15.044-8.686 6.051-22.581c0.897-3.351 3.928-5.561 7.239-5.561 0.643 0 1.296 0.083 1.946 0.257 4.001 1.072 6.375 5.185 5.303 9.186l-2.168 8.093 10.133-5.851c1.182-0.682 2.471-1.006 3.743-1.006 2.592 0 5.113 1.346 6.502 3.751 2.071 3.587 0.842 8.174-2.745 10.245l-10.132 5.85 8.093 2.168c4.001 1.072 6.375 5.185 5.303 9.186s-5.185 6.373-9.186 5.304l-22.582-6.050-15.027 8.676c0.817 2.802 1.265 5.761 1.265 8.824s-0.447 6.021-1.265 8.824l15.027 8.676 22.582-6.050c0.65-0.174 1.304-0.257 1.946-0.257 3.312 0 6.342 2.21 7.239 5.561 1.072 4.001-1.302 8.113-5.303 9.186l-8.093 2.168 10.132 5.85c3.587 2.071 4.816 6.658 2.745 10.245-2.072 3.588-6.659 4.816-10.245 2.745l-10.134-5.851 2.169 8.094c1.072 4.001-1.302 8.113-5.303 9.186s-8.113-1.303-9.186-5.304l-6.051-22.582-15.043-8.686c-4.086 4.264-9.35 7.387-15.268 8.835v17.351l16.53 16.531c2.929 2.929 2.929 7.678-0.001 10.606-2.928 2.93-7.677 2.929-10.606 0l-5.923-5.923v11.699c0 4.142-3.357 7.5-7.5 7.5s-7.5-3.358-7.5-7.5v-11.701l-5.925 5.925c-2.93 2.929-7.678 2.928-10.607 0s-2.928-7.678 0-10.607l16.532-16.53v-17.351c-5.918-1.449-11.182-4.571-15.268-8.835l-15.045 8.686-6.050 22.582c-1.072 4.001-5.187 6.374-9.186 5.304-4.001-1.072-6.375-5.185-5.304-9.186l2.168-8.093-10.133 5.85c-3.588 2.072-8.174 0.842-10.245-2.745s-0.842-8.174 2.745-10.245l10.133-5.851-8.093-2.168c-4.001-1.072-6.375-5.185-5.303-9.186 0.898-3.351 3.928-5.561 7.24-5.561 0.643 0 1.296 0.083 1.946 0.257l22.581 6.052 15.029-8.677c-0.818-2.802-1.265-5.761-1.265-8.824s0.447-6.021 1.265-8.823l-15.028-8.677-22.582 6.051c-4 1.068-8.114-1.302-9.186-5.303s1.302-8.114 5.303-9.186l8.094-2.169-10.133-5.85c-3.587-2.071-4.816-6.658-2.745-10.245 1.389-2.406 3.91-3.751 6.502-3.751 1.272 0 2.562 0.324 3.743 1.006l10.133 5.85-2.168-8.093c-1.072-4.001 1.303-8.113 5.304-9.186 0.65-0.174 1.303-0.257 1.946-0.257 3.311 0 6.342 2.21 7.24 5.561l6.050 22.582 15.044 8.686c4.086-4.264 9.35-7.386 15.267-8.835v-17.352l-16.531-16.531c-2.929-2.929-2.929-7.678 0-10.606s7.678-2.929 10.606 0l5.924 5.924v-11.701c0-4.142 3.358-7.5 7.5-7.5 4.146-0.001 7.503 3.357 7.503 7.499zM239.452 294.053c0 9.125 7.424 16.549 16.549 16.549s16.548-7.424 16.548-16.549c0-9.125-7.423-16.548-16.548-16.548s-16.549 7.423-16.549 16.548z" />
<glyph unicode="&#xe60b;" d="M451.084 325.499c-4.885 0-9.564-0.889-13.893-2.506-74.552 81.98-144.853 123.542-209.023 123.542-52.83 0-90.273-28.434-112.385-52.286-23.881-25.764-39.605-56.668-44.107-74.48-11.998-47.458-1.084-75.49 0.201-78.536l0.055-0.127-47.574-35.899c-3.023-2.283-4.5-6.079-3.809-9.805 0.689-3.726 3.428-6.741 7.068-7.789l25.918-7.451-18.506-19.74c-2.027-2.162-2.992-5.112-2.631-8.054 0.359-2.941 2.006-5.572 4.494-7.182l36.791-23.801c9.082-34.865 32.865-66.257 69.010-91.006 26.76-18.323 54.324-28.705 59.691-28.908 0.127-0.005 0.254-0.007 0.379-0.007 0.127 0 0.252 0.002 0.379 0.007 5.367 0.203 32.934 10.585 59.693 28.908 36.145 24.749 59.928 56.141 69.010 91.006l36.791 23.801c2.488 1.61 4.135 4.24 4.494 7.182s-0.604 5.892-2.631 8.054l-18.506 19.74 25.918 7.452c3.648 1.049 6.389 4.075 7.072 7.81s-0.807 7.535-3.846 9.809l-47.643 35.637c2.098 4.57 12.014 28.052 8.137 54.9-0.037 0.598-0.125 1.181-0.262 1.746-1.076 6.472-2.967 13.117-5.982 19.724 10.482 4.803 19.516 7.072 27.939 7.072 15.791 0 31.174-8.237 51.291-22.677-2.145-4.886-3.344-10.276-3.344-15.944 0-21.951 17.859-39.809 39.809-39.809 21.951 0 39.809 17.858 39.809 39.809s-17.856 39.808-39.807 39.808zM315.186 248.924l-0.541-1.104h-223.838l-0.502 1.188c-0.072 0.174-5.225 13.046-3.92 36.144h236.23c0.621-19.432-6.965-35.277-7.429-36.228zM309.061 227.821c-4.184-19.736-12.621-37.784-24.291-51.687-13.174-15.693-29.033-24.336-44.658-24.336-5.133 0-10.27 0.94-15.266 2.794-6.566 2.624-11.539 11.251-12.887 14.326-1.547 3.613-5.064 5.986-8.994 6.064-3.947 0.101-7.539-2.151-9.229-5.699-1.35-2.834-6.656-11.531-13.346-14.797-4.904-1.784-9.949-2.688-15-2.688-30.619-0.002-60.16 33.191-69.375 76.023h213.046zM353.041 201.274l-22.291-6.409c-3.346-0.962-5.951-3.597-6.877-6.955-0.924-3.358-0.037-6.955 2.346-9.496l21.504-22.938-30.082-19.461c-2.193-1.419-3.744-3.64-4.32-6.188-7.051-31.147-27.072-58.522-59.508-81.366-22.6-15.916-44.414-24.436-51.049-26.635-6.635 2.199-28.447 10.719-51.047 26.635-32.436 22.844-52.457 50.219-59.508 81.366-0.576 2.548-2.127 4.769-4.32 6.188l-30.082 19.461 21.504 22.938c2.383 2.541 3.27 6.138 2.346 9.496-0.926 3.357-3.531 5.992-6.877 6.955l-22.393 6.438 24.869 18.765c12.1-50.647 48.613-88.273 88.135-88.271 7.578 0 15.105 1.377 22.373 4.090 0.23 0.086 0.459 0.181 0.682 0.284 5.736 2.64 10.449 6.734 14.104 10.834 3.779-4.331 8.777-8.594 15.063-11.059 0.051-0.020 0.102-0.040 0.154-0.059 7.27-2.714 14.787-4.090 22.346-4.090 21.637 0 42.936 11.179 59.977 31.477 13.041 15.536 22.631 35.309 27.74 56.858l25.211-18.858zM363.328 344.312c-14.174 0-28.893-4.433-46.32-13.952-2.342-1.278-4.074-3.439-4.814-6.002s-0.426-5.314 0.873-7.645l2.070-3.712c1.447-2.598 2.635-5.222 3.619-7.848h-229.846c0.602 3.125 1.307 6.356 2.156 9.714 3.254 12.876 16.43 41.021 39.385 65.786 19.402 20.931 52.104 45.882 97.717 45.882 51.305 0 108.029-30.457 168.992-90.645-11.351 5.479-22.209 8.422-33.832 8.422zM451.084 265.882c-10.922 0-19.809 8.886-19.809 19.809s8.887 19.809 19.809 19.809c10.924 0 19.809-8.886 19.809-19.809s-8.885-19.809-19.809-19.809z" />
<glyph unicode="&#xe60c;" d="M408.269 208.825l-79.084-21.166-62.955 36.342 62.956 36.352 79.084-21.186c0.44-0.123 0.891-0.174 1.331-0.174 2.274 0 4.332 1.506 4.935 3.799 0.727 2.734-0.891 5.54-3.625 6.267l-69.192 18.534 65.945 38.072c2.437 1.413 3.277 4.547 1.874 6.994-1.423 2.457-4.557 3.287-6.994 1.874l-65.925-38.072 18.545 69.171c0.717 2.734-0.891 5.54-3.625 6.267-2.714 0.717-5.529-0.88-6.267-3.625l-21.176-79.063-62.966-36.352v72.704l57.877 57.887c1.997 1.997 1.997 5.243 0 7.239s-5.243 1.997-7.24 0l-50.647-50.647v76.135c0 2.826-2.294 5.12-5.12 5.12s-5.12-2.294-5.12-5.12v-76.135l-50.637 50.647c-1.997 1.997-5.243 1.997-7.239 0s-1.997-5.243 0-7.239l57.876-57.887v-72.704l-62.966 36.352-21.186 79.063c-0.738 2.734-3.533 4.342-6.267 3.625-2.734-0.727-4.352-3.543-3.625-6.267l18.535-69.171-65.925 38.072c-2.448 1.413-5.581 0.583-6.994-1.874-1.413-2.447-0.573-5.581 1.874-6.994l65.945-38.072-69.192-18.535c-2.734-0.727-4.352-3.543-3.625-6.267 0.615-2.294 2.683-3.799 4.936-3.799 0.441 0 0.88 0.051 1.331 0.174l79.084 21.186 62.956-36.352-62.946-36.342-79.084 21.176c-2.713 0.707-5.54-0.901-6.267-3.625-0.727-2.734 0.891-5.54 3.625-6.267l69.192-18.534-65.945-38.072c-2.448-1.423-3.287-4.546-1.874-7.004 0.953-1.639 2.672-2.56 4.444-2.56 0.871 0 1.751 0.215 2.56 0.686l65.946 38.072-18.544-69.171c-0.727-2.734 0.891-5.54 3.625-6.267 0.44-0.123 0.891-0.174 1.331-0.174 2.263 0 4.322 1.505 4.935 3.799l21.186 79.063 62.956 36.352v-72.694l-57.876-57.897c-1.997-1.986-1.997-5.243 0-7.24 1.997-1.986 5.243-1.986 7.239 0l50.637 50.658v-76.155c0-2.816 2.294-5.12 5.12-5.12s5.12 2.304 5.12 5.12v76.155l50.637-50.658c1.003-1.003 2.314-1.495 3.625-1.495 1.321 0 2.632 0.502 3.625 1.495 1.997 1.997 1.997 5.253 0 7.24l-57.907 57.887v72.694l62.956-36.352 21.176-79.073c0.625-2.284 2.693-3.789 4.935-3.789 0.44 0 0.88 0.051 1.331 0.174 2.745 0.727 4.352 3.543 3.625 6.267l-18.555 69.171 65.945-38.072c0.809-0.471 1.69-0.686 2.56-0.686 1.772 0 3.492 0.921 4.444 2.56 1.413 2.447 0.574 5.581-1.874 7.004l-65.945 38.072 69.192 18.534c2.745 0.727 4.362 3.543 3.625 6.267-0.727 2.745-3.522 4.352-6.267 3.625z" />
<glyph unicode="&#xe60d;" d="M290.683 168.305c5.325-7.199 8.56-16.026 8.56-25.641 0-23.060-18.094-41.8-40.776-43.254l-0.625-1.915c0-0.195-1.075-0.379-2.458-0.379-1.351 0-2.478 0.123-2.478 0.338l-0.666 2.007c-22.333 1.813-40.028 20.357-40.028 43.172 0 10.035 3.543 19.169 9.267 26.542 0.307-2.622 0.563-5.335 0.778-8.1-3.042-5.499-4.925-11.735-4.925-18.442 0-21.156 17.224-38.4 38.38-38.4 21.177 0 38.41 17.244 38.41 38.4 0 6.185-1.598 11.94-4.199 17.101 0.215 2.928 0.45 5.786 0.758 8.571zM361.984 276.592c-4.24-13.926-46.613-22.262-53.033-27.115-8.407-6.339-13.159-12.688-15.995-17.982 3.021 2.058 6.82 4.332 11.755 6.441 10.742 4.588 32.041 8.356 32.758 7.076 0.901-1.577 3.021-17.602-8.919-26.624-10.978-8.295-35.738-9.575-35.738-11.356 0-14.142-5.939-34.56-5.939-59.402 0-20.255-10.466-36.68-30.73-36.68s-30.72 16.425-30.72 36.68c0 24.842-5.959 45.261-5.959 59.402 0 1.853-22.436 2.898-33.3 11.172-11.981 9.113-12.124 25.416-11.182 27.065 0.727 1.219 22.16-2.642 32.983-7.311 4.024-1.741 7.26-3.574 9.953-5.315-2.908 5.048-7.588 10.967-15.37 16.834-6.421 4.854-48.804 13.189-53.043 27.115-5.775 19.047 15.278-4.239 15.422 5.294 0.246 15.892-34.499 49.869-18.596 59.546 8.56 5.212 0.379-8.346 7.178-16.425 4.239-5.028 21.453 25.314 23.696 17.603 3.379-11.602-17.838-30.587 0.522-53.074 2.458-3.031 5.079-6.062 7.782-9.063 2.519-2.786 3.287 32.327 6.983 31.55 7.076-1.485-1.485-40.95 13.895-52.398 7.178-5.335 13.742-10.332 19.794-14.736 1.065 1.126 2.274 2.161 3.686 3.093 7.055 20.388 31.754 33.095 45.968 33.095 2.058 0 3.42-0.317 4.373-0.86-0.031 0.297-0.072 0.573-0.072 0.86 0 4.649 3.758 8.428 8.438 8.428 4.618 0 8.397-3.769 8.397-8.428s-3.779-8.428-8.397-8.428c-2.734 0-5.12 1.3-6.646 3.287-0.471-5.796-5.294-16.077-0.195-28.785 1.075-0.788 2.058-1.659 2.939-2.601 0.021-0.020 0.041-0.051 0.062-0.071 6.205 4.485 12.964 9.646 20.357 15.145 15.37 11.448 6.82 50.903 13.875 52.398 3.697 0.778 4.485-34.325 6.983-31.55 2.724 3 5.325 6.031 7.803 9.063 18.361 22.487-2.857 41.472 0.502 53.074 2.243 7.711 19.456-22.63 23.695-17.602 6.82 8.079-1.382 21.637 7.178 16.425 15.902-9.677-18.841-43.653-18.575-59.545 0.144-9.534 21.207 13.752 15.432-5.294zM273.715 259.676l-1.762-1.608-2.325 0.533 0.983-2.171-1.239-2.058 2.355 0.266 1.577-1.802 0.502 2.345 2.202 0.942-2.079 1.167-0.215 2.386zM269.742 274.135l-0.604-1.044 1.239 0.133 0.798-0.921 0.226 1.198 1.116 0.471-1.065 0.625-0.092 1.219-0.901-0.829-1.219 0.276 0.502-1.127zM269.271 266.547l-0.921-1.546 1.802 0.195 1.178-1.341 0.327 1.761 1.659 0.707-1.567 0.891-0.174 1.792-1.321-1.208-1.762 0.399 0.778-1.649zM260.065 272.394l-0.625-1.054 1.198 0.154 0.798-0.932 0.276 1.208 1.106 0.471-1.065 0.604-0.144 1.219-0.88-0.829-1.219 0.266 0.553-1.106zM254.669 261.13l-2.56-4.301 4.956 0.574 3.298-3.779 1.003 4.905 4.577 1.956-4.342 2.457-0.42 4.997-3.738-3.389-4.844 1.127 2.069-4.547zM244.93 260.475l-0.922-1.557 1.782 0.215 1.178-1.372 0.379 1.772 1.638 0.696-1.556 0.891-0.164 1.802-1.341-1.219-1.741 0.389 0.748-1.618zM239.944 255.447l-0.635-1.054 1.219 0.143 0.798-0.922 0.256 1.208 1.116 0.482-1.075 0.604-0.082 1.219-0.901-0.839-1.219 0.286 0.522-1.126zM238.151 192.891c3.911 0 7.076 3.154 7.076 7.065 0 3.891-3.154 7.055-7.076 7.055-3.891 0-7.055-3.164-7.055-7.055s3.164-7.065 7.055-7.065zM271.298 139.408c0 8.212-6.656 6.81-14.878 6.81-8.202 0-14.858 1.403-14.858-6.81 0-8.233 8.837-18.934 14.858-18.934s14.878 10.711 14.878 18.934zM279.818 199.957c0 3.891-3.185 7.055-7.076 7.055s-7.055-3.164-7.055-7.055 3.164-7.065 7.055-7.065 7.076 3.164 7.076 7.065zM283.044 243.088c-0.021 0.030-0.062 0.051-0.092 0.071-5.048 5.581-14.346 8.428-27.73 8.428-13.445 0-22.784-2.857-27.843-8.499-5.181-5.878-4.322-13.394-3.963-16.599 0.020-0.133 0.020-0.256 0.061-0.358 3.102 2.15 11.12 7.291 31.744 7.291 20.644 0 28.621-5.141 31.765-7.291 0.021 0.102 0.021 0.226 0.041 0.358 0.368 3.205 1.25 10.732-3.983 16.599zM249.948 55.777c0.256-3.041 2.826-5.366 5.888-5.335 3.144 0.041 5.611 2.447 5.847 5.468-1.945-0.133-3.973-0.215-5.878-0.215-1.894-0.031-3.87 0.021-5.857 0.082zM276.685 60.836c0 0-11.438-1.874-20.91-1.935-9.523-0.062-20.982 1.536-20.982 1.536 6.983 4.721 8.376 17.705 9.165 23.501 1.188 8.878 7.445 11.561 11.469 11.561 4.096 0.031 10.414-2.447 11.735-11.346 0.88-5.817 2.488-18.709 9.523-23.317zM250.768 90.030c-2.109 0-4.444-5.346-4.413-11.909 0.071-6.605-2.693-11.038-4.987-13.538 3.246 1.567 7.823 6.963 7.792 13.538-0.061 6.594 3.686 11.971 1.607 11.909z" />
<glyph unicode="&#xe60e;" d="M349.526 155.050c23.894 30.72 38.229 69.291 38.229 110.933 0 100.010-81.238 181.248-181.248 181.248s-181.248-80.896-181.248-180.906 81.237-181.248 181.248-181.248c41.984 0 80.214 14.336 110.933 38.23l145.408-145.408 32.086 32.086-145.408 145.067zM206.506 118.87c-81.237 0-147.114 65.877-147.114 147.115s65.877 147.114 147.114 147.114 147.114-65.877 147.114-147.114-65.877-147.115-147.114-147.115z" />
<glyph unicode="&#xe60f;" d="M257.365 435.627l59.392-171.008 181.248-3.755-144.384-109.568 52.565-173.397-148.821 103.424-148.821-103.424 52.566 173.398-144.726 109.568 181.248 3.755z" />
<glyph unicode="&#xe610;" d="M260.096 430.507c-116.736 0-211.286-94.55-211.286-211.286s94.549-211.286 211.286-211.286c116.736 0 211.286 94.55 211.286 211.286s-94.55 211.286-211.286 211.286zM199.68 118.528v201.387l181.248-100.694-181.248-100.693zM260.096 460.885c-133.462 0-241.664-108.202-241.664-241.664s108.203-241.664 241.664-241.664c133.462 0 241.664 108.202 241.664 241.664s-108.202 241.664-241.664 241.664zM260.096-2.304c-122.197 0-221.525 99.328-221.525 221.525s99.328 221.525 221.525 221.525 221.184-99.328 221.184-221.525-99.328-221.525-221.184-221.525z" />
<glyph unicode="&#xe611;" d="M256 425.387c-123.563 0-223.573-100.011-223.573-223.574s100.011-223.573 223.573-223.573 223.573 100.010 223.573 223.573c0 123.563-100.010 223.573-223.573 223.573zM256 22.954c-98.645 0-178.858 80.214-178.858 178.858s80.214 178.858 178.858 178.858c98.645 0 178.858-80.214 178.858-178.858s-80.214-178.858-178.858-178.858zM289.45 291.243c0-18.474-14.976-33.45-33.451-33.45s-33.451 14.976-33.451 33.45c0 18.474 14.976 33.45 33.451 33.45s33.451-14.976 33.451-33.45zM278.187 201.813v0 22.187h-66.901v-22.187h22.528v-89.43h-22.528v-22.528h89.43v22.528h-22.528z" />
<glyph unicode="&#xe612;" d="M497.664 268.032h-193.195v193.536h-96.939v-193.536h-193.195v-96.598h193.195v-193.195h96.939v193.195h193.195z" />
<glyph unicode="&#xe613;" d="M475.136 306.262l-54.954 54.613-164.182-164.181-164.181 164.181-54.955-54.613 219.136-219.136z" />
<glyph unicode="&#xe614;" d="M33.792 141.738l54.954-54.613 164.181 164.181 164.182-164.181 54.613 54.613-218.794 219.136z" />
<glyph unicode="&#xe615;" d="M308.224 65.962h-268.288v309.248h268.288v-103.082h20.822v123.904h-309.589v-350.89h309.589v123.904h-20.822zM308.224 69.376h-268.288v309.248h268.288v-103.082h20.822v123.904h-309.589v-350.89h309.589v123.904h-20.822zM396.288 322.645l-14.678-14.678 77.142-77.141h-315.392v-20.48h315.392l-77.142-77.142 14.678-14.678 102.058 102.058zM396.288 326.058l-14.678-14.678 77.142-77.141h-315.392v-20.48h315.392l-77.142-77.142 14.678-14.678 102.058 102.058z" />
<glyph unicode="&#xe616;" d="M160 384l352 96v-368c0-44.183-50.145-80-112-80s-112 35.817-112 80c0 44.183 50.145 80 112 80 17.179 0 33.451-2.766 48-7.703v164.794l-224-61.091v-240c0-44.183-50.144-80-112-80s-112 35.817-112 80c0 44.183 50.144 80 112 80 17.179 0 33.451-2.766 48-7.703v263.703z" />
<glyph unicode="&#xe617;" d="M96 190.857v-221.715c5.227-0.748 10.567-1.143 16-1.143h16v224.001h-16c-5.433 0-10.773-0.395-16-1.143zM384 192v-224h16c5.434 0 10.773 0.395 16 1.143v221.714c-5.227 0.748-10.566 1.143-16 1.143h-16zM512 224c0 141.385-114.615 256-256 256s-256-114.615-256-256c0-30.709 5.414-60.153 15.328-87.437-9.736-16.601-15.328-35.926-15.328-56.563 0-44.677 26.163-83.239 64-101.216v202.432c-10.063-4.781-19.29-11.030-27.429-18.452-2.996 14.61-4.571 29.739-4.571 45.236 0 123.712 100.288 224 224 224s224-100.288 224-224c0-15.497-1.574-30.626-4.571-45.236-8.14 7.422-17.365 13.671-27.429 18.452v-202.432c37.838 17.977 64 56.539 64 101.216 0 20.637-5.592 39.962-15.328 56.563 9.914 27.284 15.328 56.728 15.328 87.437z" />
<glyph unicode="&#xe618;" d="M490.594 399.946c-71.816 10.325-151.166 16.054-234.593 16.054-83.43 0-162.778-5.729-234.597-16.054-13.765-53.863-21.404-113.375-21.404-175.946 0-62.57 7.639-122.083 21.404-175.945 71.819-10.326 151.168-16.055 234.597-16.055 83.427 0 162.776 5.729 234.593 16.055 13.766 53.862 21.406 113.375 21.406 175.945 0 62.571-7.64 122.083-21.406 175.946zM192.001 128v192l160-96-160-96z" />
<glyph unicode="&#xe619;" d="M0 416v-384h512v384h-512zM96 64h-64v64h64v-64zM96 192h-64v64h64v-64zM96 320h-64v64h64v-64zM384 64h-256v320h256v-320zM480 64h-64v64h64v-64zM480 192h-64v64h64v-64zM480 320h-64v64h64v-64zM192 320v-192l128 96z" />
<glyph unicode="&#xe61a;" d="M463.906 480h-144.281c-26.453 0-63.398-15.303-82.102-34.007l-223.495-223.495c-18.704-18.704-18.704-49.312 0-68.016l172.455-172.453c18.704-18.705 49.311-18.705 68.015 0l223.495 223.494c18.704 18.705 34.007 55.651 34.007 82.102v144.281c0 26.452-21.643 48.094-48.094 48.094zM400 320c-26.51 0-48 21.49-48 48s21.49 48 48 48 48-21.49 48-48-21.49-48-48-48z" />
<glyph unicode="&#xe61b;" d="M496 448h-112c-26.4 0-63.273-15.273-81.941-33.941l-188.118-188.118c-18.667-18.667-18.667-49.214 0-67.882l140.118-140.117c18.667-18.668 49.214-18.668 67.882 0l188.117 188.117c18.669 18.668 33.942 55.541 33.942 81.941v112c0 26.4-21.6 48-48 48zM432 288c-26.51 0-48 21.49-48 48s21.49 48 48 48 48-21.49 48-48-21.49-48-48-48zM43.313 180.687l171.189-171.189c-18.132-9.58-41.231-6.769-56.443 8.444l-140.118 140.117c-18.667 18.668-18.667 49.215 0 67.882l188.118 188.118c18.668 18.668 55.541 33.941 81.941 33.941l-244.687-244.686c-6.222-6.223-6.222-16.404 0-22.627z" horiz-adv-x="544" />
<glyph unicode="&#xe61c;" d="M224 416v8c0 13.2-10.8 24-24 24h-80c-13.2 0-24-10.8-24-24v-8h-96v-64h96v-8c0-13.2 10.8-24 24-24h80c13.2 0 24 10.8 24 24v8h288v64h-288zM128 352v64h64v-64h-64zM416 264c0 13.2-10.8 24-24 24h-80c-13.2 0-24-10.8-24-24v-8h-288v-64h288v-8c0-13.2 10.8-24 24-24h80c13.2 0 24 10.8 24 24v8h96v64h-96v8zM320 192v64h64v-64h-64zM224 104c0 13.2-10.8 24-24 24h-80c-13.2 0-24-10.8-24-24v-8h-96v-64h96v-8c0-13.2 10.8-24 24-24h80c13.2 0 24 10.8 24 24v8h288v64h-288v8zM128 32v64h64v-64h-64z" />
<glyph unicode="&#xe61d;" d="M448 256h8c13.2 0 24 10.8 24 24v80c0 13.2-10.8 24-24 24h-8v96h-64v-96h-8c-13.2 0-24-10.8-24-24v-80c0-13.2 10.8-24 24-24h8v-288h64v288zM384 352h64v-64h-64v64zM296 64c13.2 0 24 10.8 24 24v80c0 13.2-10.8 24-24 24h-8v288h-64v-288h-8c-13.2 0-24-10.8-24-24v-80c0-13.2 10.8-24 24-24h8v-96h64v96h8zM224 160h64v-64h-64v64zM136 256c13.2 0 24 10.8 24 24v80c0 13.2-10.8 24-24 24h-8v96h-64v-96h-8c-13.2 0-24-10.8-24-24v-80c0-13.2 10.8-24 24-24h8v-288h64v288h8zM64 352h64v-64h-64v64z" />
<glyph unicode="&#xe61e;" d="M408.208 329.356c-12.985-12.954-33.994-12.954-46.98 0-12.955 12.955-12.955 33.995 0 46.981l93.931 93.931c12.986 12.955 33.995 12.955 46.981 0 12.954-12.955 12.954-33.995 0-46.98l-93.932-93.932zM255.871-31.727l-127.863 127.864h-95.898c-17.669 0-31.966 14.298-31.966 31.967v191.794c0 17.668 14.297 31.966 31.966 31.966h95.897l127.864 127.864c0 0 31.966 3.996 31.966-31.966 0-191.233 0-478.926 0-447.522 0-35.962-31.966-31.967-31.966-31.967zM223.905 351.864l-63.932-63.932h-95.897v-127.863h95.897l63.932-63.933v255.728zM383.734 192.035c-17.669 0-31.966 14.297-31.966 31.966s14.297 31.966 31.966 31.966h95.897c17.669 0 31.966-14.298 31.966-31.966s-14.297-31.966-31.966-31.966h-95.897zM408.208 118.645l93.932-93.931c12.954-12.986 12.954-34.026 0-46.981-12.986-12.955-33.995-12.955-46.981 0l-93.931 93.931c-12.955 12.986-12.955 34.026 0 46.981 12.986 12.955 33.995 12.955 46.98 0z" />
<glyph unicode="&#xe61f;" d="M319.967-23.497v67.34c74.368 26.424 127.933 96.7 127.933 180.157 0 83.426-53.565 153.732-127.934 180.156v67.341c110.288-28.485 191.902-128.309 191.902-247.497s-81.614-219.043-191.901-247.497zM256-31.868l-127.934 127.933h-95.951c-17.678 0-31.983 14.306-31.983 31.983v191.902c0 17.679 14.306 31.983 31.983 31.983h95.951l127.934 127.934c0 0 31.983 3.998 31.983-31.983 0-72.899 0-382.053 0-447.769 0-35.981-31.983-31.983-31.983-31.983zM224.017 351.934l-63.967-63.967h-95.951v-127.934h95.951l63.967-63.968v255.869zM415.917 224c0-59.532-40.854-109.132-95.95-123.405v68.309c19.053 11.087 31.983 31.483 31.983 55.096 0 23.612-12.931 44.008-31.983 55.097v68.308c55.096-14.274 95.95-63.874 95.95-123.405z" />
<glyph unicode="&#xe620;" d="M511.603 176.274l-47.694-47.726-47.726 47.726-47.725-47.726-47.694 47.726 47.694 47.726-47.694 47.725 47.694 47.726 47.725-47.726 47.726 47.726 47.694-47.726-47.695-47.725 47.695-47.726zM256.266-31.868l-127.934 127.933h-95.951c-17.678 0-31.983 14.306-31.983 31.983v191.902c0 17.679 14.306 31.983 31.983 31.983h95.951l127.934 127.934c0 0 31.983 3.998 31.983-31.983 0-173.535 0-425.718 0-447.769 0-35.981-31.983-31.983-31.983-31.983zM224.282 351.934l-63.967-63.967h-95.951v-127.934h95.951l63.967-63.968v255.869z" />
<glyph unicode="&#xe621;" d="M128 383.664v48.336c0 26.464-21.536 48-48 48s-48-21.536-48-48v-48.336c-19.328-14.64-32-37.568-32-63.664s12.672-49.024 32-63.632v-240.368c0-26.464 21.536-48 48-48s48 21.536 48 48v240.368c19.328 14.592 32 37.536 32 63.632s-12.672 49.024-32 63.664zM64 432c0 8.848 7.152 16 16 16s16-7.152 16-16v-33.6c-5.168 1.040-10.512 1.6-16 1.6s-10.832-0.56-16-1.6v33.6zM96 16c0-8.848-7.152-16-16-16s-16 7.152-16 16v225.632c5.168-1.072 10.512-1.632 16-1.632s10.832 0.56 16 1.632v-225.632zM125.84 306.56c-0.256-0.848-0.48-1.68-0.784-2.528-1.52-4.224-3.472-8.224-6.048-11.776-0.064-0.096-0.16-0.16-0.224-0.256-2.784-3.808-6.096-7.184-9.856-10.032-0.064-0.064-0.112-0.096-0.16-0.128-3.856-2.912-8.16-5.248-12.784-6.88-5.008-1.808-10.336-2.96-15.984-2.96s-10.976 1.152-16 2.976c-4.624 1.632-8.928 3.968-12.784 6.88-0.048 0.032-0.096 0.064-0.16 0.128-3.76 2.848-7.072 6.224-9.856 10.032-0.064 0.096-0.16 0.16-0.224 0.256-2.576 3.568-4.528 7.568-6.048 11.776-0.304 0.848-0.528 1.68-0.784 2.528-1.264 4.272-2.144 8.736-2.144 13.424 0 4.72 0.88 9.184 2.16 13.472 0.256 0.848 0.48 1.68 0.784 2.496 1.504 4.224 3.456 8.224 6.048 11.808 0.064 0.096 0.16 0.16 0.224 0.256 2.784 3.776 6.096 7.184 9.856 10.032 0.064 0.032 0.112 0.096 0.16 0.128 3.84 2.864 8.144 5.216 12.768 6.864 5.024 1.792 10.352 2.944 16 2.944s10.976-1.152 16-2.944c4.624-1.664 8.928-4 12.784-6.88 0.048-0.032 0.096-0.096 0.16-0.128 3.76-2.848 7.072-6.256 9.856-10.032 0.064-0.096 0.16-0.16 0.224-0.256 2.576-3.568 4.528-7.568 6.032-11.792 0.304-0.816 0.544-1.648 0.784-2.496 1.28-4.288 2.16-8.752 2.16-13.472 0-4.688-0.88-9.152-2.16-13.44zM480 383.664v48.336c0 26.464-21.536 48-48 48s-48-21.536-48-48v-48.336c-19.344-14.64-32-37.568-32-63.664s12.656-49.024 32-63.632v-240.368c0-26.464 21.536-48 48-48s48 21.536 48 48v240.368c19.312 14.592 32 37.536 32 63.632s-12.688 49.024-32 63.664zM416 432c0 8.848 7.152 16 16 16s16-7.152 16-16v-33.6c-5.184 1.040-10.528 1.6-16 1.6-5.504 0-10.848-0.56-16-1.6v33.6zM448 16c0-8.848-7.152-16-16-16s-16 7.152-16 16v225.632c5.152-1.072 10.496-1.632 16-1.632 5.472 0 10.816 0.56 16 1.632v-225.632zM477.84 306.56c-0.256-0.848-0.496-1.68-0.784-2.528-1.536-4.224-3.472-8.224-6.064-11.776-0.064-0.096-0.16-0.16-0.224-0.256-2.784-3.808-6.096-7.184-9.84-10.032-0.064-0.064-0.128-0.096-0.16-0.128-3.872-2.912-8.16-5.248-12.784-6.88-5.008-1.808-10.352-2.96-15.984-2.96-5.664 0-10.976 1.152-16 2.976-4.624 1.632-8.944 3.968-12.784 6.88-0.064 0.032-0.096 0.064-0.16 0.128-3.776 2.848-7.088 6.224-9.872 10.032-0.064 0.096-0.16 0.16-0.224 0.256-2.56 3.568-4.528 7.568-6.032 11.776-0.32 0.848-0.528 1.68-0.784 2.528-1.264 4.272-2.144 8.736-2.144 13.424 0 4.72 0.88 9.184 2.16 13.472 0.256 0.848 0.464 1.68 0.784 2.496 1.504 4.224 3.472 8.224 6.032 11.808 0.064 0.096 0.16 0.16 0.224 0.256 2.784 3.776 6.096 7.184 9.872 10.032 0.064 0.032 0.096 0.096 0.16 0.128 3.84 2.88 8.16 5.216 12.784 6.88 5.008 1.776 10.32 2.928 15.984 2.928 5.632 0 10.976-1.152 16-2.944 4.624-1.664 8.912-4 12.784-6.88 0.032-0.032 0.096-0.096 0.16-0.128 3.744-2.848 7.056-6.256 9.84-10.032 0.064-0.096 0.16-0.16 0.224-0.256 2.592-3.6 4.528-7.6 6.064-11.808 0.288-0.816 0.528-1.664 0.784-2.496 1.264-4.272 2.144-8.736 2.144-13.456 0-4.688-0.88-9.152-2.16-13.44zM304 191.664v240.336c0 26.464-21.536 48-48 48s-48-21.536-48-48v-240.336c-19.328-14.624-32-37.568-32-63.664s12.672-49.024 32-63.632v-48.368c0-26.464 21.536-48 48-48s48 21.536 48 48v48.368c19.312 14.592 32 37.536 32 63.632s-12.688 49.024-32 63.664zM240 432c0 8.848 7.152 16 16 16s16-7.152 16-16v-225.6c-5.184 1.024-10.528 1.6-16 1.6-5.488 0-10.832-0.56-16-1.6v225.6zM272 16c0-8.848-7.152-16-16-16s-16 7.152-16 16v33.632c5.168-1.072 10.512-1.632 16-1.632 5.472 0 10.816 0.56 16 1.632v-33.632zM301.84 114.56c-0.256-0.848-0.496-1.68-0.784-2.528-1.536-4.224-3.472-8.224-6.064-11.776-0.064-0.096-0.16-0.16-0.224-0.256-2.784-3.808-6.096-7.184-9.84-10.032-0.064-0.064-0.128-0.096-0.16-0.128-3.872-2.912-8.16-5.248-12.784-6.88-5.008-1.808-10.352-2.96-15.984-2.96-5.648 0-10.976 1.152-16 2.976-4.624 1.632-8.928 3.968-12.784 6.88-0.048 0.032-0.096 0.064-0.16 0.128-3.76 2.848-7.072 6.224-9.856 10.032-0.064 0.096-0.16 0.16-0.224 0.256-2.576 3.568-4.528 7.568-6.048 11.776-0.304 0.848-0.528 1.68-0.784 2.528-1.264 4.272-2.144 8.736-2.144 13.424 0 4.72 0.88 9.184 2.16 13.472 0.256 0.848 0.48 1.68 0.784 2.496 1.52 4.224 3.472 8.224 6.048 11.808 0.064 0.096 0.16 0.16 0.224 0.256 2.784 3.776 6.096 7.184 9.856 10.032 0.064 0.032 0.112 0.096 0.16 0.128 3.856 2.88 8.16 5.216 12.784 6.88 5.008 1.776 10.336 2.928 15.984 2.928 5.632 0 10.976-1.152 16-2.944 4.624-1.664 8.912-4 12.784-6.88 0.032-0.032 0.096-0.096 0.16-0.128 3.744-2.848 7.056-6.256 9.84-10.032 0.064-0.096 0.16-0.16 0.224-0.256 2.592-3.6 4.528-7.6 6.064-11.808 0.288-0.816 0.528-1.664 0.784-2.496 1.264-4.272 2.144-8.736 2.144-13.456 0-4.688-0.88-9.152-2.16-13.44z" />
<glyph unicode="&#xe622;" d="M500.576 472.496c-5.808 4.88-13.088 7.504-20.56 7.504-1.84 0-3.712-0.16-5.568-0.496l-272.032-48c-15.296-2.688-26.432-15.968-26.432-31.504v-274.72c-16.24 11.776-37.312 18.72-60.704 18.72-13.6 0-27.2-2.256-40.464-6.656-30.368-10.128-54.72-30.432-66.816-55.744-9.344-19.568-10.544-40.848-3.424-59.936 12.176-32.608 46.768-53.664 88.128-53.664 13.6 0 27.2 2.224 40.448 6.656 30.352 10.096 54.704 30.4 66.8 55.68 5.2 10.912 7.632 22.336 7.728 33.664h0.288v256c1.84 0 3.712 0.16 5.568 0.464l266.48 47.024v-194.208c-16.256 11.776-37.312 18.72-60.72 18.72-13.6 0-27.216-2.256-40.464-6.656-30.368-10.128-54.72-30.432-66.784-55.744-9.344-19.568-10.56-40.848-3.44-59.936 12.192-32.608 46.752-53.664 88.128-53.664 13.6 0 27.216 2.224 40.464 6.656 30.336 10.096 54.688 30.4 66.784 55.68 5.216 10.912 7.632 22.336 7.744 33.664h0.288v336c0 9.44-4.192 18.432-11.44 24.496zM123.008 4.992c-38.336-12.784-77.968-0.288-88.464 27.84-10.528 28.16 12.016 61.344 50.336 74.128 38.336 12.784 77.968 0.32 88.464-27.84 10.544-28.144-12-61.344-50.336-74.128zM426.448 52.992c-38.368-12.784-78-0.288-88.496 27.84-10.528 28.16 12.032 61.344 50.336 74.128 38.368 12.784 78 0.32 88.496-27.84 10.544-28.144-11.984-61.344-50.336-74.128zM479.36 400l-272.032-48v48l272.032 48v-48z" />
</font>
</defs>
</svg>
